<svg xmlns="http://www.w3.org/2000/svg" viewBox="0 0 1000 1000" fill="none">
  <g fill="currentColor" stroke="currentColor" stroke-width="40" stroke-linecap="round" stroke-linejoin="round">
    <!-- Main body outline -->
    <path d="M200 400c0-110.46 89.54-200 200-200h200c110.46 0 200 89.54 200 200v200c0 110.46-89.54 200-200 200H400c-110.46 0-200-89.54-200-200V400Z" fill="none"/>
    
    <!-- Pig ears -->
    <path d="M320 280c-30-60-90-60-120-20-30 40-10 100 30 120l90-100Z" fill="none"/>
    <path d="M680 280c30-60 90-60 120-20 30 40 10 100-30 120l-90-100Z" fill="none"/>
    
    <!-- Pig snout -->
    <ellipse cx="500" cy="580" rx="120" ry="80" fill="none"/>
    <!-- Nostrils -->
    <circle cx="470" cy="570" r="12" fill="currentColor"/>
    <circle cx="530" cy="570" r="12" fill="currentColor"/>
    
    <!-- Eyes -->
    <circle cx="420" cy="450" r="35" fill="currentColor"/>
    <circle cx="580" cy="450" r="35" fill="currentColor"/>
    <!-- Eye highlights -->
    <circle cx="430" cy="440" r="12" fill="white"/>
    <circle cx="590" cy="440" r="12" fill="white"/>
    
    <!-- Smile -->
    <path d="M450 650c25 35 50 35 100 0" fill="none" stroke-width="35"/>
    
    <!-- Legs -->
    <rect x="330" y="750" width="50" height="120" fill="currentColor" rx="25"/>
    <rect x="420" y="750" width="50" height="120" fill="currentColor" rx="25"/>
    <rect x="530" y="750" width="50" height="120" fill="currentColor" rx="25"/>
    <rect x="620" y="750" width="50" height="120" fill="currentColor" rx="25"/>
    
    <!-- Curly tail -->
    <path d="M780 480c30-15 60-5 75 15s5 50-15 65c-20 15-50 5-65-15s-5-50 5-65Z" fill="none" stroke-width="45"/>
  </g>
</svg>